<svg xmlns="http://www.w3.org/2000/svg" viewBox="0 0 539.077 539.077" width="512" height="512"><g fill="#665f60"><path d="M404.308 426.769h-22.462a11.224 11.224 0 0 1-11.231-11.231 11.224 11.224 0 0 1 11.231-11.231h22.462c30.972 0 56.154-25.181 56.154-56.154S435.28 292 404.308 292h-22.462c-6.208 0-11.231-5.023-11.231-11.231s5.023-11.231 11.231-11.231h22.462c43.344 0 78.615 35.272 78.615 78.615s-35.271 78.616-78.615 78.616z"/><path d="M336.923 539.077H134.77c-30.961 0-56.154-25.181-56.154-56.154V235.846a11.224 11.224 0 0 1 11.231-11.231H307.86l50.78-91.228c-4.212-4.19-7.524-9.037-9.761-14.389-4.76-11.34-4.475-24.469.79-36.961 2.764-6.559 7.348-12.338 12.174-18.436 12.657-15.98 19.807-26.684 7.94-44.77a11.251 11.251 0 0 1 .197-12.635c2.676-3.762 7.326-5.55 11.823-4.442 32.508 7.864 55.518 30.775 63.129 62.866 6.844 28.932-.768 58.72-18.974 74.119-6.427 5.451-13.775 8.796-21.672 10.013l-28.647 75.863h6.208a11.224 11.224 0 0 1 11.231 11.231v247.077c-.001 30.972-25.182 56.154-56.155 56.154zm-235.846-292v235.846c0 18.579 15.113 33.692 33.692 33.692h202.154c18.579 0 33.692-15.113 33.692-33.692V247.077h-55.934c-.219-.022-.307-.011-.461 0H101.077zm232.49-22.462h18.053l29.459-78.001a61.232 61.232 0 0 1-3.422-1.206l-44.09 79.207zm46.569-102.809a33.964 33.964 0 0 0 4.102 2.051c10.88 4.562 20.049 3.784 27.221-2.259 11.516-9.761 16.407-31.543 11.604-51.8-3.685-15.596-12.371-28.241-24.765-36.697 1.272 19.051-10.309 33.681-18.842 44.441-3.861 4.881-7.524 9.476-9.081 13.216-2.939 6.986-3.224 13.753-.79 19.566 1.667 3.981 4.541 7.425 8.467 10.156.154.077.329.165.483.252.57.317 1.096.679 1.601 1.074z"/><path d="M179.693 247.077h-67.385a11.235 11.235 0 0 1-10.046-6.208L68.657 173.66a11.057 11.057 0 0 1-1.152-3.564L56.307 102.92a11.207 11.207 0 0 1 4.76-11.121c3.597-2.501 8.302-2.632 12.097-.351l55.935 33.561c1.261.724 2.413 1.7 3.345 2.917.011.011.011.022.022.033.011 0-.022 0 .033.033.011 0-.011 0 .022.033v.011c.011 0 .011.011.022.022l.011.011s0 .011.011.022l.011.011c0 .011.011.011.011.011.329.45.614.899.866 1.371l56.055 100.912a11.224 11.224 0 0 1-9.815 16.681zm-60.443-22.462h41.359l-40.635-73.132-27.123 20.334 26.399 52.798zM82.465 123.22l4.19 25.171 16.78-12.58-20.97-12.591z"/><path d="M292 247.077h-89.846a11.224 11.224 0 0 1-11.231-11.231V11.231A11.225 11.225 0 0 1 202.154 0H292a11.224 11.224 0 0 1 11.231 11.231v224.615A11.224 11.224 0 0 1 292 247.077zm-78.615-22.462h67.385v-22.462h-11.231a11.224 11.224 0 0 1-11.231-11.231 11.224 11.224 0 0 1 11.231-11.231h11.231v-22.462h-33.692c-6.208 0-11.231-5.023-11.231-11.231s5.023-11.231 11.231-11.231h33.692v-22.462h-11.231a11.224 11.224 0 0 1-11.231-11.231 11.224 11.224 0 0 1 11.231-11.231h11.231V67.385h-33.692c-6.208 0-11.231-5.023-11.231-11.231s5.023-11.231 11.231-11.231h33.692V22.462h-67.385v202.153z"/></g></svg>