<svg xmlns="http://www.w3.org/2000/svg" viewBox="0 0 539.077 539.077" width="512" height="512"><g fill="#FFF"><path d="M303.232 539.077h-67.385a11.232 11.232 0 0 1-10.123-6.361L90.955 251.936a11.215 11.215 0 0 1 .559-10.748l86.194-140.067-52.458-83.935a11.222 11.222 0 0 1-.307-11.395A11.241 11.241 0 0 1 134.77 0h258.308c3.883 0 7.502 2.018 9.564 5.33a11.264 11.264 0 0 1 .483 10.924l-42.137 84.253 86.578 140.681a11.275 11.275 0 0 1 .57 10.748l-134.769 280.78a11.276 11.276 0 0 1-10.135 6.361zm-22.462-22.462h15.398l129.044-268.869-83.331-135.438H197.197l-83.342 135.438L242.91 516.615h15.398V280.769a11.224 11.224 0 0 1 11.231-11.231 11.224 11.224 0 0 1 11.231 11.231v235.846zM197.154 89.846h144.07l33.692-67.385H155.038l42.116 67.385z"/><path d="M269.539 292c-30.961 0-56.154-25.192-56.154-56.154s25.192-56.154 56.154-56.154c30.972 0 56.154 25.192 56.154 56.154S300.512 292 269.539 292zm0-89.846c-18.579 0-33.692 15.113-33.692 33.692s15.113 33.692 33.692 33.692 33.692-15.113 33.692-33.692-15.113-33.692-33.692-33.692z"/></g></svg>