<svg xmlns="http://www.w3.org/2000/svg" viewBox="0 0 538.726 538.726" width="512" height="512"><g fill="#665f60"><path d="M241.191 392.748c-105.277 0-190.923-85.657-190.923-190.934S135.914 10.891 241.191 10.891s190.934 85.646 190.934 190.923-85.656 190.934-190.934 190.934zm0-359.396c-92.895 0-168.462 75.566-168.462 168.462 0 92.906 75.566 168.472 168.462 168.472 92.906 0 168.473-75.566 168.473-168.472 0-92.895-75.567-168.462-168.473-168.462zm11.231 460.451a11.224 11.224 0 0 1-11.231-11.231c0 6.208-5.023 11.231-11.231 11.231s-11.231-5.023-11.231-11.231V448.88c0-6.208 5.023-11.231 11.231-11.231s11.231 5.023 11.231 11.231c0-6.208 5.023-11.231 11.231-11.231s11.231 5.023 11.231 11.231v33.692a11.224 11.224 0 0 1-11.231 11.231z"/><path d="M375.533 538.726H106.828a11.242 11.242 0 0 1-10.66-7.677 11.252 11.252 0 0 1 3.926-12.547c41.194-30.841 89.978-47.16 141.098-47.16 51.098 0 99.881 16.32 141.076 47.16 3.861 2.895 5.44 7.962 3.926 12.547a11.255 11.255 0 0 1-10.661 7.677zm-229.365-22.462h190.013c-58.742-29.568-131.238-29.568-190.013 0zm95.034-56.263c-62.658 0-125.304-22.593-174.538-67.779l-8.116 8.116c-4.387 4.387-11.494 4.387-15.881 0s-4.387-11.494 0-15.881l15.223-15.223c.197-.219.417-.461.636-.68.219-.219.461-.439.691-.636l15.212-15.201c4.387-4.387 11.494-4.387 15.881 0 4.387 4.387 4.387 11.494 0 15.881l-7.743 7.743c92.445 84.121 236.087 81.533 325.385-7.743 89.276-89.298 91.864-232.973 7.743-325.418l-7.743 7.754c-4.387 4.387-11.494 4.387-15.881 0s-4.387-11.494 0-15.881L423.834 3.29c4.387-4.387 11.494-4.387 15.881 0s4.387 11.494 0 15.881l-8.116 8.116c92.851 101.209 90.263 259.141-7.765 357.191-50.341 50.341-116.498 75.501-182.632 75.523z"/></g></svg>