<svg xmlns="http://www.w3.org/2000/svg" viewBox="0 0 539.077 539.077" width="512" height="512"><g fill="#665f60"><path d="M393.077 539.077H146c-30.961 0-56.154-25.181-56.154-56.154V56.154C89.846 25.192 115.039 0 146 0h247.077c30.972 0 56.154 25.192 56.154 56.154v426.769c0 30.972-25.182 56.154-56.154 56.154zm-280.769-89.846v33.692c0 18.579 15.113 33.692 33.692 33.692h247.077c18.579 0 33.692-15.113 33.692-33.692v-33.692H112.308zm0-22.462H426.77V112.308H112.308v314.461zm0-336.923H426.77V56.154c0-18.579-15.113-33.692-33.692-33.692H146c-18.579 0-33.692 15.113-33.692 33.692v33.692zm213.384-22.461H213.385c-6.208 0-11.231-5.023-11.231-11.231s5.023-11.231 11.231-11.231h112.308c6.208 0 11.231 5.023 11.231 11.231s-5.024 11.231-11.232 11.231z"/><path d="M269.538 505.385c-12.382 0-22.462-10.068-22.462-22.462 0-12.393 10.079-22.462 22.462-22.462 12.393 0 22.462 10.068 22.462 22.462 0 12.393-10.068 22.462-22.462 22.462z"/></g></svg>