<svg xmlns="http://www.w3.org/2000/svg" width="54" height="72"><path fill-rule="evenodd" fill="#F6F6F6" d="M29.714 52.981c-.508 5.558-1.54 10.445-3.419 14.717-.623 1.416-1.756 2.767-2.279 4.302h-.228v-1.132c.428-.665.219-1.575.456-2.491 1.128-4.357 1.213-10.17-.684-13.811-3.24-6.221-9.728-4.128-16.181-6.793-2.528-1.043-4.385-3.19-5.698-5.434L.313 38.49c-.716-2.705-.062-6.199.684-8.151 3.107-8.131 10.872-11.709 20.284-7.245v-.679c-.807-1.096-.545-2.733-.912-4.302C19.384 13.894 18.625.046 23.332 0c1.277.926 3.731.885 3.875 2.943-.376.405-.398.569-.456 1.359h.228v-.227c.981-1.03 1.25-3.37 2.963-3.622 1.368 1.22 3.683 1.463 4.102 3.622-1.142 1.446-2.269 3.974-2.735 5.887h.456c1.428-1.877 7.312-7.251 10.028-6.793.804 1.292 1.634 2.569 2.051 4.303-1.435.509-2.095 1.895-3.191 2.717-3.999 2.999-7.231 7.374-9.8 11.773h.684c1.569-1.22 7.973-1.811 10.712-1.132 7.222 1.792 9.252 4.271 10.939 11.547.235 1.011.544 3.392.228 4.755-2.183 9.442-6.79 14.209-16.409 16.302-2.571.559-5.134-.337-7.293-.453z"/></svg>