<svg xmlns="http://www.w3.org/2000/svg" viewBox="0 0 539.077 539.077" width="512" height="512"><g fill="#FFF"><path d="M269.538 539.077a11.189 11.189 0 0 1-9.366-5.045c-6.964-10.529-170.326-258.988-170.326-354.34C89.846 80.611 170.458 0 269.538 0S449.23 80.611 449.23 179.692c0 95.352-163.373 343.811-170.326 354.34a11.204 11.204 0 0 1-9.366 5.045zm0-516.615c-86.698 0-157.231 70.532-157.231 157.231 0 76.279 122.047 272.5 157.231 327.469 35.184-54.969 157.231-251.212 157.231-327.469 0-86.699-70.543-157.231-157.231-157.231z"/><path d="M269.538 258.308c-43.344 0-78.615-35.272-78.615-78.615s35.272-78.615 78.615-78.615 78.615 35.272 78.615 78.615-35.271 78.615-78.615 78.615zm0-134.77c-30.961 0-56.154 25.192-56.154 56.154s25.192 56.154 56.154 56.154c30.972 0 56.154-25.192 56.154-56.154s-25.181-56.154-56.154-56.154z"/></g></svg>