<svg xmlns="http://www.w3.org/2000/svg" viewBox="0 0 539.077 539.077" width="512" height="512"><path d="M348.154 539.077H78.615C35.272 539.077 0 503.805 0 460.462s35.272-78.615 78.615-78.615h33.692V78.615C112.308 35.272 147.579 0 190.923 0h269.538c1.119 0 2.215.165 3.224.472A69.169 69.169 0 0 1 471.692 0c39.681 0 67.385 32.332 67.385 78.615a11.224 11.224 0 0 1-11.231 11.231H426.769v370.615c0 43.344-35.271 78.616-78.615 78.616zm0-134.769c-30.972 0-56.154 25.182-56.154 56.154s25.181 56.154 56.154 56.154 56.154-25.181 56.154-56.154V67.385c0-17.241 6.515-32.99 17.197-44.923H190.923c-30.961 0-56.154 25.192-56.154 56.154v303.231h213.385a11.224 11.224 0 0 1 11.231 11.231c0 6.207-5.024 11.23-11.231 11.23zm-269.539 0c-30.961 0-56.154 25.182-56.154 56.154s25.192 56.154 56.154 56.154h214.569c-14.587-14.28-23.646-34.175-23.646-56.154 0-21.979 9.059-41.874 23.646-56.154H78.615zM426.769 67.385h89.122c-3.575-27.287-20.444-44.923-44.199-44.923-24.764 0-44.923 20.147-44.923 44.923zM325.692 336.923H202.154a11.224 11.224 0 0 1-11.231-11.231 11.224 11.224 0 0 1 11.231-11.231h123.538a11.224 11.224 0 0 1 11.231 11.231 11.224 11.224 0 0 1-11.231 11.231zm0-67.385H202.154a11.224 11.224 0 0 1-11.231-11.231 11.224 11.224 0 0 1 11.231-11.231h123.538a11.224 11.224 0 0 1 11.231 11.231 11.224 11.224 0 0 1-11.231 11.231zm0-67.384H202.154a11.224 11.224 0 0 1-11.231-11.231 11.224 11.224 0 0 1 11.231-11.231h123.538a11.224 11.224 0 0 1 11.231 11.231 11.224 11.224 0 0 1-11.231 11.231zm0-67.385H202.154c-6.208 0-11.231-5.023-11.231-11.231s5.023-11.231 11.231-11.231h123.538c6.208 0 11.231 5.023 11.231 11.231s-5.023 11.231-11.231 11.231z" fill="#FFF"/></svg>