<svg xmlns="http://www.w3.org/2000/svg" viewBox="0 0 539.077 539.077" width="512" height="512"><path d="M269.538 157.231c-43.344 0-78.615-35.272-78.615-78.615S226.195 0 269.538 0s78.615 35.272 78.615 78.615-35.271 78.616-78.615 78.616zm0-134.769c-30.961 0-56.154 25.192-56.154 56.154s25.192 56.154 56.154 56.154c30.972 0 56.154-25.192 56.154-56.154s-25.181-56.154-56.154-56.154zm0 516.615C138.871 539.077 0 503.652 0 438c0-53.39 92.073-84.297 178.234-95.418 6.12-.834 11.779 3.553 12.58 9.695.79 6.164-3.553 11.801-9.706 12.591C76.959 378.315 22.462 411.831 22.462 438c0 37.18 101.472 78.615 247.077 78.615S516.615 475.18 516.615 438c0-26.169-54.487-59.685-158.613-73.132-6.142-.79-10.485-6.427-9.695-12.591.812-6.164 6.208-10.507 12.591-9.695 86.139 11.143 178.179 42.05 178.179 95.418 0 65.652-138.871 101.077-269.539 101.077zm0-56.154c-62.57 0-168.462-10.639-168.462-50.538 0-19.851 25.752-34.394 76.532-43.278 6.12-1.25 11.922 3.005 12.997 9.125 1.064 6.098-3.016 11.933-9.136 12.986-45.066 7.897-57.185 18.908-57.963 21.409 3.038 9.388 55.858 27.836 146.033 27.836s142.995-18.447 146.022-28.318c-.768-2.018-12.81-13.008-57.689-20.904-6.098-1.075-10.178-6.888-9.103-13.008 1.053-6.12 6.997-10.331 13.008-9.103C412.358 398.034 438 412.577 438 432.385c0 39.9-105.903 50.538-168.462 50.538zm33.693-56.154h-67.385a11.224 11.224 0 0 1-11.231-11.231V326.46c-43.837-20.992-67.385-83.924-67.385-135.537a11.224 11.224 0 0 1 11.231-11.231h202.154a11.224 11.224 0 0 1 11.231 11.231c0 51.613-23.558 114.545-67.385 135.537v89.078a11.223 11.223 0 0 1-11.23 11.231zm-56.154-22.461H292v-85.349c0-4.782 3.005-9.015 7.524-10.595 34.043-11.933 56.132-62.109 59.444-106.21H180.12c3.29 44.101 25.39 94.277 59.433 106.21a11.216 11.216 0 0 1 7.524 10.595v85.349z" fill="#665f60"/></svg>