<svg xmlns="http://www.w3.org/2000/svg" viewBox="0 0 539.077 539.077" width="512" height="512"><g fill="#665f60"><path d="M438 494.154H101.077v-22.462H438v22.462zM494.154 438h-22.462V101.077h22.462V438zm-426.769 0H44.923V101.077h22.462V438zM438 67.385H101.077V44.923H438v22.462z"/><path d="M527.846 539.077H438a11.224 11.224 0 0 1-11.231-11.231V438A11.224 11.224 0 0 1 438 426.769h89.846A11.224 11.224 0 0 1 539.077 438v89.846a11.224 11.224 0 0 1-11.231 11.231zm-78.615-22.462h67.385V449.23h-67.385v67.385zm-348.154 22.462H11.231A11.224 11.224 0 0 1 0 527.846V438a11.224 11.224 0 0 1 11.231-11.231h89.846A11.224 11.224 0 0 1 112.308 438v89.846a11.224 11.224 0 0 1-11.231 11.231zm-78.615-22.462h67.385V449.23H22.462v67.385zm505.384-404.307H438a11.224 11.224 0 0 1-11.231-11.231V11.231A11.224 11.224 0 0 1 438 0h89.846a11.224 11.224 0 0 1 11.231 11.231v89.846a11.224 11.224 0 0 1-11.231 11.231zm-78.615-22.462h67.385V22.462h-67.385v67.384zm-348.154 22.462H11.231A11.224 11.224 0 0 1 0 101.077V11.231A11.224 11.224 0 0 1 11.231 0h89.846a11.224 11.224 0 0 1 11.231 11.231v89.846a11.224 11.224 0 0 1-11.231 11.231zM22.462 89.846h67.385V22.462H22.462v67.384z"/></g></svg>